<?xml version="1.0" encoding="utf-8"?>
<!-- Generator: Adobe Illustrator 19.2.0, SVG Export Plug-In . SVG Version: 6.00 Build 0)  -->
<svg version="1.1" id="Capa_1" xmlns="http://www.w3.org/2000/svg" xmlns:xlink="http://www.w3.org/1999/xlink" x="0px" y="0px"
	 width="540.2px" height="139.6px" viewBox="0 0 540.2 139.6" style="enable-background:new 0 0 540.2 139.6;" xml:space="preserve"
	>
<style type="text/css">
	.st0{fill:#211915;}
	.st1{fill:#FF5100;}
</style>
<g id="Layer_2">
	<g id="Capa_1_1_">
		<path class="st0" d="M3.2,36.6C1.1,41.5,0,46.8,0,52.2c0,24.3,22.6,44.7,53.3,50.5l0,0C55.8,70.4,35.5,43.3,3.2,36.6"/>
		<path class="st0" d="M3.2,36.6L3.2,36.6L3.2,36.6z"/>
		<polygon class="st0" points="57,103.3 57,103.3 57,103.3 		"/>
		<path class="st0" d="M22.6,14.1L22.6,14.1c-4.2,2.8-8.1,6.2-11.5,10l0,0c30.2,15.2,47.1,41,45.9,79.2c1,0.2,2,0.3,3.1,0.4l0,0
			C62.8,68.6,44.6,33.5,22.6,14.1"/>
		<path class="st0" d="M49.6,2.4c-4.9,1.1-9.8,2.7-14.5,4.7h0.1c20,29,30.7,70.5,28.7,96.9l0,0c0.9,0.1,1.9,0.1,2.8,0.2l0,0
			C68,82.7,62.6,32.2,49.6,2.4L49.6,2.4z"/>
		<path class="st0" d="M90,102.6c30-6.1,52.3-26.5,52.3-50.4c0-5.4-1.2-10.7-3.3-15.6C85.6,47.6,89.9,102.6,90,102.6"/>
		<path class="st0" d="M139,36.6L139,36.6L139,36.6z"/>
		<path class="st0" d="M131.1,24.1L131.1,24.1c-3.4-3.8-7.2-7.3-11.4-10.1V14c-22,19.4-39.2,54.3-36.5,89.4l0,0
			c1-0.1,2.1-0.2,3.1-0.4C85,64.8,100.9,39.3,131.1,24.1"/>
		<polygon class="st0" points="86.3,103.1 86.3,103.1 86.3,103.1 		"/>
		<path class="st0" d="M107,7.1L107,7.1c-4.7-2-9.5-3.6-14.4-4.7l0,0C79.6,32.2,75.8,82.7,77,104.2l0,0c0.9,0,1.9-0.1,2.8-0.2l0,0
			C77.8,77.6,87,36.1,107,7.1"/>
		<path class="st0" d="M78.7,0.3c-2.5-0.2-5-0.3-7.6-0.3c-2.6,0-7.5,0.2-7.5,0.2c3.3,23.5,7.4,74.2,7.1,104h2.5
			C71.6,73.4,78.7,0.3,78.7,0.3"/>
		<path class="st0" d="M428.1,77.3c9.4,2.9,19.5,2.9,28.9,0c9.9-3.2,16.9-11.9,18-22.3c1.1,10.3,8.2,19.1,18.1,22.3
			c9.4,2.9,19.5,2.9,28.9,0c3.7-1.1,17.7-7.1,18.3-25.1c-0.5-18.1-14.6-24-18.3-25.1c-9.4-2.9-19.5-2.9-28.9,0
			c-9.9,3.2-17,11.9-18.1,22.3c-1.1-10.3-8.1-19-18-22.3c-9.4-2.9-19.5-2.9-28.9,0c-6.4,2.1-11.7,6.6-15,12.5l4.7-11.2h-17L389,58.2
			l-8.5-18.5l5.3-11.5h-24.2l5.3,11.5l-8.8,19.2l-11.7-30.6h-61.9V75c3.4-0.8,6.9-1.6,10.4-2.3c1.5-0.3,3-0.6,4.5-0.9l2.3-0.4
			l2.3-0.4l2.3-0.4c0.8-0.1,1.5-0.3,2.3-0.4l4.6-0.7c1.5-0.2,3.1-0.4,4.6-0.6l2.3-0.3l2.4-0.2l2.4-0.2l1.2-0.1l1.2-0.1l4.7-0.4
			l2.1-0.1v-2.9h-31.9v-6.9h28.4V46.4h-28.4v-6.8h32l11,27.4c2,0,3.9-0.1,5.9-0.1c5.6,0,11.2,0.2,16.8,0.5l5.9-12.9l6.4,13.9
			l1.8,0.2l2.3,0.3c1.6,0.2,3.1,0.4,4.7,0.6c3.7,0.5,7.3,1.1,10.9,1.7l11.3-27.2c-0.8,2.6-1.2,5.3-1.3,8.1
			C410.3,70.2,424.4,76.1,428.1,77.3z M493.7,45c4.1-9.5,13.8-9.1,13.8-9.1c6.1-0.1,11.6,3.6,13.9,9.3c0.8,2.1,1.2,4.3,1.2,6.5
			c0,2-0.2,3.9-0.8,5.8c-1.9,6.4-7.7,10.7-14.3,10.7c-9.1-0.3-12.3-6.3-13.6-8.9c-1-2.2-1.5-4.6-1.6-7.1
			C492.3,49.8,492.7,47.3,493.7,45z M428.7,45c2.4-5.5,7.8-9,13.8-9c6.1-0.1,11.6,3.6,13.9,9.3c0.8,2.1,1.2,4.3,1.2,6.5
			c0,2-0.2,3.9-0.8,5.8c-1.9,6.3-7.7,10.7-14.3,10.7c-9.1-0.3-12.3-6.3-13.6-8.9c-1-2.2-1.5-4.6-1.6-7.1
			C427.3,49.9,427.7,47.3,428.7,45L428.7,45z"/>
		<path class="st0" d="M262.4,28.2h-28.2l-13.9,30.5c0.8-2.3,1.3-4.8,1.3-7.2c0-7.2-4.4-14-6.3-15.8c-5.3-5.3-12.4-8.4-19.8-8.6
			h-35.3v50h34.5c1.2,0,11.6,0.1,19.2-7.3c1.3-1.4,2.5-3,3.4-4.7L212.5,76h19.3l17-37.5L261.1,64h-23.8l6.5,12h36.9l3.4-0.9
			L262.4,28.2z M200.3,60.9c-3,2.7-7.8,4.3-12.9,4.3h-9.1V39h9.1c5.1,0,9.8,1.6,12.9,4.3c2.5,2.2,3.8,5.5,3.7,8.8
			C204.1,55.4,202.8,58.7,200.3,60.9z"/>
		<path class="st0" d="M284.5,75l-0.4,0.1l0.4,0.9V75z"/>
		<path class="st0" d="M284.1,75.1l-3.4,0.9h3.8L284.1,75.1z"/>
		<path class="st0" d="M234.8,116.1h-4.6v12.2h2.4v-4.2h2.1c2.2,0,4-1.8,4-4S237,116.1,234.8,116.1L234.8,116.1z M232.7,118.3h1.9
			c0.9-0.1,1.7,0.5,1.8,1.4c0,0.1,0,0.2,0,0.4c0.1,0.9-0.5,1.7-1.4,1.8c-0.1,0-0.2,0-0.3,0h-1.9V118.3z"/>
		<path class="st0" d="M252.8,115.9c-3.4,0-6.2,2.7-6.3,6.1c0,0,0,0.1,0,0.1c0,3.5,2.8,6.3,6.3,6.3c3.5,0,6.3-2.8,6.3-6.3
			c0,0,0,0,0,0c0-3.4-2.7-6.2-6.1-6.2C252.8,115.9,252.8,115.9,252.8,115.9z M252.8,126.2c-2.1-0.1-3.8-1.8-3.8-4c0,0,0-0.1,0-0.1
			c0-2.1,1.7-3.8,3.8-3.8c2.1,0,3.8,1.7,3.8,3.8c0,0,0,0,0,0C256.6,124.3,255,126.1,252.8,126.2
			C252.8,126.2,252.8,126.2,252.8,126.2z"/>
		<polygon class="st0" points="277.4,124.1 275.2,116.1 273.2,116.1 271,124.1 269.1,116.1 266.6,116.1 269.7,128.3 272.2,128.3 
			274.2,120.8 276.2,128.3 278.7,128.3 281.9,116.1 279.4,116.1 		"/>
		<polygon class="st0" points="292.7,123.3 296.8,123.3 296.8,121 292.7,121 292.7,118.3 297.7,118.3 297.7,116.1 290.2,116.1 
			290.2,128.3 298,128.3 298,126.1 292.7,126.1 		"/>
		<path class="st0" d="M313.2,123.1c1.2-0.7,1.9-1.9,1.9-3.3c0.1-1.5-0.8-2.9-2.2-3.5c-0.7-0.2-1.5-0.3-2.3-0.3h-3.9v12.2h2.4v-4.5
			h1.8l2.4,4.5h2.8l-2.8-5L313.2,123.1z M309.1,118.3h1.4c0.5,0,0.9,0,1.4,0.2c0.7,0.6,0.9,1.6,0.3,2.3c-0.3,0.4-0.7,0.6-1.2,0.7
			h-1.9V118.3z"/>
		<path class="st0" d="M340.2,116.1h-4.6v12.2h2.4v-4.2h2.1c2.2,0,4-1.8,4-4S342.4,116.1,340.2,116.1L340.2,116.1z M338.1,118.3h1.9
			c0.9-0.1,1.7,0.5,1.8,1.4c0,0.1,0,0.2,0,0.4c0.1,0.9-0.5,1.7-1.4,1.8c-0.1,0-0.2,0-0.3,0h-1.9L338.1,118.3z"/>
		<path class="st0" d="M359.2,123.1c1.2-0.7,1.9-1.9,1.8-3.3c0.1-1.5-0.8-2.9-2.2-3.5c-0.7-0.2-1.5-0.3-2.3-0.3h-3.9v12.2h2.4v-4.5
			h1.8l2.4,4.5h2.8l-2.8-5L359.2,123.1z M355.1,118.3h1.4c0.5,0,0.9,0,1.4,0.2c0.7,0.6,0.9,1.6,0.3,2.3c-0.3,0.4-0.7,0.6-1.2,0.7
			h-1.9V118.3z"/>
		<path class="st0" d="M375.7,115.9c-3.4,0-6.2,2.7-6.3,6.1c0,0,0,0.1,0,0.1c-0.1,3.5,2.6,6.4,6,6.5c3.5,0.1,6.4-2.6,6.5-6
			c0-0.2,0-0.3,0-0.5c0-3.4-2.7-6.2-6.1-6.2C375.8,115.9,375.7,115.9,375.7,115.9z M375.7,126.2c-2.1-0.1-3.8-1.9-3.8-4
			c0,0,0,0,0-0.1c0-2.1,1.7-3.8,3.8-3.8c2.1,0,3.8,1.7,3.8,3.8C379.6,124.3,377.9,126.1,375.7,126.2
			C375.7,126.2,375.7,126.2,375.7,126.2z"/>
		<path class="st0" d="M394.9,116.1h-4.2v12.2h4.2c3.8,0,6.2-2.3,6.2-6.1S398.7,116.1,394.9,116.1z M393.1,118.3h1.6
			c1.9-0.2,3.6,1.2,3.8,3.1c0,0.2,0,0.5,0,0.7c0,2.5-1.4,3.9-3.8,3.9h-1.6V118.3z"/>
		<path class="st0" d="M417,123.8c0.1,1.2-0.8,2.3-2,2.4c-0.2,0-0.3,0-0.5,0c-1.2,0.2-2.3-0.7-2.4-1.9c0-0.2,0-0.3,0-0.5v-7.8h-2.4
			v7.8c0.2,2.7,2.5,4.8,5.2,4.6c2.5-0.2,4.4-2.1,4.6-4.6v-7.8H417V123.8z"/>
		<path class="st0" d="M437.5,124.9c-0.9,0.8-2,1.3-3.2,1.3c-2.1,0-3.8-1.8-3.8-3.9c0-0.1,0-0.1,0-0.2c-0.1-2.1,1.5-3.8,3.5-3.9
			c0.1,0,0.2,0,0.2,0c1.1,0,2.2,0.4,3,1.1l0.4,0.3l1.2-1.9l-0.2-0.2c-1.2-1.1-2.8-1.7-4.5-1.6c-3.4-0.1-6.1,2.6-6.2,6
			c0,0.1,0,0.2,0,0.3c-0.1,3.4,2.6,6.2,6,6.4c0.1,0,0.2,0,0.3,0c1.8,0,3.5-0.7,4.7-1.9l0.2-0.2l-1.4-1.8L437.5,124.9z"/>
		<polygon class="st0" points="446.2,118.3 450.1,118.3 450.1,128.3 452.5,128.3 452.5,118.3 456.4,118.3 456.4,116.1 446.2,116.1 
					"/>
		<path class="st0" d="M468.3,121.1c-1.3-0.5-2-0.9-2-1.6s0.7-1.2,1.6-1.2c0.8,0,1.6,0.3,2.2,0.9l0.4,0.4l1.1-2.1l-0.2-0.2
			c-1-0.9-2.2-1.3-3.5-1.3c-2.3,0-4.1,1.6-4.1,3.6s1.9,3,3.4,3.6c1.3,0.6,2.1,1,2.1,1.8s-0.8,1.3-1.5,1.3c-1,0-1.9-0.4-2.6-1.1
			l-0.3-0.3l-1.4,1.9l0.2,0.2c1.1,1.1,2.5,1.7,4.1,1.6c2,0.2,3.8-1.4,4-3.4c0-0.1,0-0.1,0-0.2C471.8,122.5,469.9,121.7,468.3,121.1z
			"/>
		<path class="st1" d="M530,139.6l-3.4-2.6c-0.6-0.4-1.2-0.9-1.9-1.4l-2.3-1.7l-2.7-1.9l-3-2.1l-1.6-1.1c-0.6-0.4-1.2-0.8-1.8-1.2
			l-3.8-2.5l-4.1-2.7l-1.1-0.7l-1.1-0.6l-2.3-1.4c-6.2-3.8-13.4-7.8-21.5-11.8L478,107l-1.5-0.7l-3.2-1.5l-0.8-0.4l-0.8-0.4
			l-1.6-0.7l-3.3-1.5c-4.5-1.9-9.2-3.9-14.1-5.6c-2.4-0.9-4.9-1.8-7.5-2.7c-0.6-0.2-1.3-0.4-1.9-0.7l-1.9-0.6
			c-1.3-0.4-2.6-0.9-3.9-1.2l-4-1.2c-1.3-0.4-2.7-0.8-4-1.2l-2-0.6c-0.7-0.2-1.4-0.4-2-0.5l-4.1-1.1c-2.8-0.7-5.6-1.3-8.4-1.9
			l-2.1-0.5l-1.1-0.2l-1.1-0.2l-4.3-0.8c-1.5-0.3-2.9-0.5-4.4-0.8l-2.2-0.4l-2.2-0.3l-2.3-0.4c-0.7-0.1-1.5-0.2-2.2-0.3l-4.5-0.6
			c-6-0.7-12-1.3-18.1-1.7c-6.1-0.3-12.2-0.6-18.4-0.6s-12.2,0.2-18.3,0.6s-12.1,1-18.1,1.7l-4.5,0.6c-0.7,0.1-1.5,0.2-2.2,0.3
			l-2.2,0.3l-2.2,0.3l-2.2,0.4c-1.5,0.3-2.9,0.5-4.4,0.8l-4.3,0.8l-1.1,0.2l-1.1,0.2l-2.1,0.5c-2.8,0.6-5.6,1.3-8.4,1.9
			c-10.6,2.6-21.1,5.9-31.4,9.7c-4.9,1.8-9.6,3.7-14.1,5.6l-3.3,1.5l-1.6,0.7l-0.8,0.4l-0.8,0.4l-3.2,1.5l-1.6,0.7l-1.5,0.8
			c-2,1-4,2-5.9,3l-2.8,1.5c-0.5,0.2-0.9,0.5-1.4,0.8l-1.4,0.7l-2.7,1.5c-0.9,0.5-1.7,1-2.6,1.5c-1.7,1-3.3,1.9-4.9,2.9l-2.3,1.4
			l-1.1,0.7l-1.1,0.7l-4.1,2.6l-3.8,2.5l-1.8,1.2l-1.6,1.1l-3,2.1l-2.6,1.9l-2.3,1.7c-0.7,0.5-1.3,1-1.9,1.4l-3.4,2.6l3-3
			c0.5-0.5,1-1,1.7-1.6l2.1-1.9c0.7-0.7,1.5-1.4,2.4-2.2s1.8-1.6,2.8-2.4l1.5-1.3c0.5-0.4,1.1-0.9,1.6-1.3l3.5-2.8l3.9-3
			c0.3-0.3,0.7-0.5,1-0.8l1.1-0.8l2.2-1.5c1.5-1.1,3-2.2,4.6-3.2c0.8-0.6,1.6-1.1,2.5-1.7l2.6-1.7c0.9-0.6,1.7-1.2,2.6-1.7l2.8-1.7
			c1.9-1.2,3.8-2.3,5.8-3.4l1.5-0.9l1.5-0.8l3.1-1.7l0.8-0.4l0.8-0.4l1.6-0.8l3.3-1.7l3.4-1.6l1.7-0.8c0.6-0.3,1.2-0.5,1.8-0.8
			L241,92c0.6-0.3,1.2-0.5,1.8-0.8l1.8-0.8c2.4-1.1,5-2,7.5-3c0.6-0.3,1.3-0.5,1.9-0.7l2-0.7c1.3-0.5,2.6-1,4-1.4l4-1.4
			c0.7-0.2,1.4-0.4,2-0.7l2.1-0.7l2.1-0.7l2.1-0.6l4.2-1.2c5.7-1.6,11.5-3,17.5-4.2c1.5-0.3,3-0.6,4.5-0.9l2.3-0.4l2.3-0.4l2.3-0.4
			c0.8-0.1,1.5-0.3,2.3-0.4l4.6-0.7c1.5-0.2,3.1-0.4,4.6-0.6c0.8-0.1,1.6-0.2,2.3-0.3l2.4-0.2l2.4-0.2l1.2-0.1l1.2-0.1l4.7-0.4
			c6.3-0.4,12.7-0.6,19-0.7s12.7,0.2,19,0.7l4.7,0.4l1.2,0.1l1.2,0.1l2.4,0.2l2.3,0.2l2.3,0.3c1.6,0.2,3.1,0.4,4.7,0.6
			c6.2,0.8,12.3,1.9,18.2,3.1s11.8,2.7,17.5,4.2c10.9,3,21.5,6.7,31.9,11.1l1.8,0.8c0.6,0.3,1.2,0.5,1.8,0.8l3.6,1.6
			c0.6,0.3,1.2,0.5,1.8,0.8l1.7,0.8l3.4,1.6l3.3,1.7l1.6,0.8l0.8,0.4l0.8,0.4l3.1,1.7l1.5,0.8l1.5,0.9c2,1.2,3.9,2.2,5.8,3.4
			l2.8,1.7c0.5,0.3,0.9,0.6,1.3,0.8l1.3,0.8l2.6,1.7c0.9,0.6,1.7,1.1,2.5,1.7l2.4,1.6c0.8,0.5,1.5,1.1,2.3,1.6l2.2,1.6l1.1,0.8
			l1,0.8l3.9,3l3.5,2.8c0.6,0.4,1.1,0.9,1.6,1.3l1.5,1.3l2.8,2.4c0.9,0.8,1.7,1.5,2.4,2.2l2,1.9c0.6,0.6,1.2,1.1,1.7,1.6L530,139.6z
			"/>
	</g>
</g>
</svg>
